<svg xmlns="http://www.w3.org/2000/svg" width="887.61" height="165" viewBox="0 0 887.61 165"><g style="isolation:isolate"><g style="isolation:isolate"><path d="M209.35,102.57c-.41,20.29,14.22,26.5,32.16,26.5,10.35,0,26.08-5.66,26.08-20,0-11.18-11.18-15.6-20.29-17.81l-21.94-5.38c-11.59-2.9-22.22-8.42-22.22-23.73,0-9.66,6.21-27.74,34-27.74,19.46,0,36.57,10.49,36.43,30.63h-9.38c-.55-15-13-22.63-26.91-22.63-12.84,0-24.7,5-24.7,19.6,0,9.24,6.9,13.11,14.9,15l24,5.93c13.94,3.73,25.53,9.8,25.53,26,0,6.76-2.76,28.15-37.67,28.15-23.32,0-40.44-10.49-39.33-34.5Z" fill="#0e105a"></path><path d="M290.08,63.79h8v12h.42c4.55-8.56,12-14.08,23.32-14.08,9.39,0,17.8,4.56,20.43,13.94,4.27-9.38,13.24-13.94,22.63-13.94,15.59,0,23.6,8.14,23.6,25V135h-8.7V87.11C379.78,75.38,375.37,69,363,69c-15.05,0-19.32,12.42-19.32,25.66V135h-8.7V86.7C335.07,77,331.07,69,320,69c-15,0-21.12,11.31-21.25,26.22V135h-8.7Z" fill="#0e105a"></path><path d="M404.07,85.6c.83-16.7,12.56-23.88,28.84-23.88,12.56,0,26.22,3.87,26.22,22.91v37.81c0,3.31,1.66,5.25,5.11,5.25a8.09,8.09,0,0,0,2.76-.56v7.32a24.16,24.16,0,0,1-5.66.55c-8.83,0-10.21-5-10.21-12.42h-.28c-6.07,9.25-12.28,14.49-25.94,14.49-13.12,0-23.88-6.49-23.88-20.84,0-20,19.46-20.7,38.23-22.91,7.17-.82,11.18-1.79,11.18-9.66C450.44,71.93,442,69,431.81,69,421,69,413,74,412.76,85.6Zm46.37,10.48h-.28c-1.1,2.07-5,2.76-7.31,3.18-14.77,2.62-33.12,2.48-33.12,16.42,0,8.69,7.72,14.08,15.87,14.08,13.24,0,25-8.42,24.84-22.36Z" fill="#0e105a"></path><path d="M476.38,63.79h8v16.7h.28c4.42-11.45,14.08-18.22,26.91-17.66v8.69c-15.73-.83-26.5,10.76-26.5,25.53v38h-8.69Z" fill="#0e105a"></path><path d="M533.51,63.79H548v7.32H533.51v48c0,5.66.83,9,7,9.38a66.43,66.43,0,0,0,7.45-.41v7.45c-2.62,0-5.11.28-7.73.28-11.59,0-15.59-3.87-15.45-16V71.11H512.4V63.79h12.42V42.4h8.69Z" fill="#0e105a"></path></g><g style="isolation:isolate"><path d="M561.66,36.47h42.5c25.53,0,44.72,16,44.72,48.71,0,28.57-14.63,49.82-44.72,49.82h-42.5Zm21.67,80.31h19.32c12.55,0,24.56-7.72,24.56-29.53,0-19.87-6.9-32.57-28.43-32.57H583.33Z" fill="#0e105a"></path><path d="M696.35,61.72c22.49,0,37,14.91,37,37.68s-14.49,37.53-37,37.53S659.5,122,659.5,99.4,674,61.72,696.35,61.72Zm0,60.45c13.38,0,17.39-11.46,17.39-22.77,0-11.46-4-22.91-17.39-22.91S679.1,87.94,679.1,99.4C679.1,110.71,683.1,122.17,696.35,122.17Z" fill="#0e105a"></path><path d="M794.46,88.77c-1.24-8-6.34-12.28-14.49-12.28-12.55,0-16.69,12.69-16.69,23.18,0,10.21,4,22.5,16.28,22.5,9.11,0,14.35-5.8,15.59-14.49h18.91c-2.48,18.9-15.59,29.25-34.36,29.25-21.53,0-36-15.18-36-36.57,0-22.22,13.25-38.64,36.43-38.64,16.84,0,32.3,8.83,33.54,27.05Z" fill="#0e105a"></path><path d="M840.14,111.82c.14,8.55,7.32,12,15,12,5.66,0,12.84-2.21,12.84-9.11,0-5.93-8.14-8-22.22-11-11.32-2.48-22.63-6.48-22.63-19,0-18.22,15.73-22.91,31.05-22.91,15.59,0,29.94,5.25,31.46,22.77H867.05c-.55-7.59-6.35-9.66-13.38-9.66-4.42,0-10.91.83-10.91,6.63,0,7,11,8,22.22,10.62,11.45,2.62,22.63,6.76,22.63,20,0,18.77-16.28,24.84-32.57,24.84-16.55,0-32.7-6.21-33.53-25.11Z" fill="#0e105a"></path></g></g><rect width="165" height="165" rx="16" fill="#0e10ff"></rect><path d="M43.71,130.83V34H92.45l29,28.7v68.13Z" fill="#fff"></path><g opacity="0.29"><path d="M92.45,34l29,28.7H92.45Z" fill="#33f"></path></g><path d="M73.82,61.37l-2.91-2.91a7.54,7.54,0,0,0,1.25-2.58,6.18,6.18,0,0,0-1.34-5.24,6.33,6.33,0,0,0-11.23,4,6,6,0,0,0,2.33,4.82A6.57,6.57,0,0,0,66,60.87a7.5,7.5,0,0,0,1.25-.08,6.43,6.43,0,0,0,2.66-1.17l3,3a.8.8,0,0,0,.59.25.92.92,0,0,0,.58-.25A1.37,1.37,0,0,0,73.82,61.37Zm-7-2.16a4.9,4.9,0,0,1-4-1,4.74,4.74,0,1,1,6.65-6.66,4.87,4.87,0,0,1,1,4,4.5,4.5,0,0,1-1.24,2.33h-.09c-.08,0,0,0,0,.09A4,4,0,0,1,66.83,59.21Z" fill="#33f"></path><rect x="59.51" y="89.32" width="43.84" height="1.58" fill="#33f"></rect><rect x="59.51" y="99.3" width="43.84" height="1.58" fill="#33f"></rect><rect x="59.51" y="109.2" width="43.84" height="1.58" fill="#33f"></rect></svg>